HIERARCHY
ROOT Hips
{
	OFFSET 0.000000 0.000000 0.000000
	CHANNELS 6 Xposition Yposition Zposition Zrotation Yrotation Xrotation 
	JOINT LeftUpLeg_virtual
	{
		OFFSET 0.000000 0.000000 0.000000
		CHANNELS 3 Zrotation Yrotation Xrotation
		JOINT LeftUpLeg
		{
			OFFSET 8.479694 -4.795517 -0.379053
			CHANNELS 3 Zrotation Yrotation Xrotation
			JOINT LeftLeg
			{
				OFFSET 0.485052 -32.551468 0.112863
				CHANNELS 3 Zrotation Yrotation Xrotation
				JOINT LeftFoot
				{
					OFFSET 0.438033 -32.635670 -3.012641
					CHANNELS 3 Zrotation Yrotation Xrotation
					JOINT LeftToeBase
					{
						OFFSET 0.970169 -13.225353 11.864223
						CHANNELS 3 Zrotation Yrotation Xrotation
						End Site
						{
							OFFSET 0.000000 0.000000 0.000000
						}
					}
				}
			}
		}
	}
	JOINT RightUpLeg_virtual
	{
		OFFSET 0.000000 0.000000 0.000000
		CHANNELS 3 Zrotation Yrotation Xrotation
		JOINT RightUpLeg
		{
			OFFSET -8.479694 -4.795517 -0.379053
			CHANNELS 3 Zrotation Yrotation Xrotation
			JOINT RightLeg
			{
				OFFSET -0.484100 -32.551483 0.112903
				CHANNELS 3 Zrotation Yrotation Xrotation
				JOINT RightFoot
				{
					OFFSET -0.438985 -32.635651 -3.012681
					CHANNELS 3 Zrotation Yrotation Xrotation
					JOINT RightToeBase
					{
						OFFSET -0.970169 -13.225354 11.864223
						CHANNELS 3 Zrotation Yrotation Xrotation
						End Site
						{
							OFFSET 0.000000 0.000000 0.000000
						}
					}
				}
			}
		}
	}
	JOINT Spine_virtual
	{
		OFFSET 0.000000 0.000000 0.000000
		CHANNELS 3 Zrotation Yrotation Xrotation
		JOINT Spine
		{
			OFFSET 0.000000 7.722015 1.166203
			CHANNELS 3 Zrotation Yrotation Xrotation
			JOINT Spine1
			{
				OFFSET 0.000000 12.024086 0.248766
				CHANNELS 3 Zrotation Yrotation Xrotation
				JOINT Spine2
				{
					OFFSET -0.000000 11.503036 -0.491240
					CHANNELS 3 Zrotation Yrotation Xrotation
					JOINT Neck_virtual
					{
						OFFSET 0.000000 0.000000 0.000000
						CHANNELS 3 Zrotation Yrotation Xrotation
						JOINT Neck
						{
							OFFSET 0.000000 18.430687 -3.123054
							CHANNELS 3 Zrotation Yrotation Xrotation
							JOINT Head
							{
								OFFSET -0.000000 9.051071 1.034021
								CHANNELS 3 Zrotation Yrotation Xrotation
								End Site
								{
									OFFSET 0.000000 0.000000 0.000000
								}
							}
						}
					}
					JOINT LeftShoulder_virtual
					{
						OFFSET 0.000000 0.000000 0.000000
						CHANNELS 3 Zrotation Yrotation Xrotation
						JOINT LeftShoulder
						{
							OFFSET 6.197824 13.665230 -4.064723
							CHANNELS 3 Zrotation Yrotation Xrotation
							JOINT LeftArm
							{
								OFFSET 7.778132 -0.187073 -1.709282
								CHANNELS 3 Zrotation Yrotation Xrotation
								JOINT LeftForeArm
								{
									OFFSET 21.954697 0.000000 -2.041093
									CHANNELS 3 Zrotation Yrotation Xrotation
									JOINT LeftHand
									{
										OFFSET 22.992908 0.000000 -0.870901
										CHANNELS 3 Zrotation Yrotation Xrotation
										End Site
										{
											OFFSET 0.000000 0.000000 0.000000
										}
									}
								}
							}
						}
					}
					JOINT RightShoulder_virtual
					{
						OFFSET 0.000000 0.000000 0.000000
						CHANNELS 3 Zrotation Yrotation Xrotation
						JOINT RightShoulder
						{
							OFFSET -6.197824 13.665230 -4.064723
							CHANNELS 3 Zrotation Yrotation Xrotation
							JOINT RightArm
							{
								OFFSET -7.778132 -0.187073 -1.709282
								CHANNELS 3 Zrotation Yrotation Xrotation
								JOINT RightForeArm
								{
									OFFSET -21.954697 0.000000 -2.041093
									CHANNELS 3 Zrotation Yrotation Xrotation
									JOINT RightHand
									{
										OFFSET -22.992908 0.000000 -0.870901
										CHANNELS 3 Zrotation Yrotation Xrotation
										End Site
										{
											OFFSET 0.000000 0.000000 0.000000
										}
									}
								}
							}
						}
					}
				}
			}
		}
	}
}
MOTION
Frames: 10
Frame Time: 0.033333
-24.480410 80.813354 80.077026 -179.861352 31.030499 -179.960759 -2.479650 -2.537237 7.711330 3.518045 5.267167 -27.605902 7.190535 6.674778 30.537468 -0.731475 -8.178955 -6.804499 0.000000 0.000000 0.000000 1.836412 -3.548485 6.242440 3.234728 4.425721 -22.209658 -0.620333 4.937867 29.991330 3.648363 9.540693 -10.053449 0.000000 0.000000 0.000000 2.562541 0.455162 -4.288392 1.038811 -1.049743 -3.467054 -1.604009 -1.417909 8.883271 -0.031563 0.011076 0.017527 -1.944963 0.049619 9.013162 -3.666695 -1.956456 -6.284504 0.000000 0.000000 0.000000 0.092866 0.593344 6.331133 -4.959946 -0.030894 4.250806 -61.931149 5.299961 14.385090 0.717339 -35.237475 18.293963 0.000000 0.000000 0.000000 -4.657258 2.153761 5.811251 28.619712 3.116841 5.826929 51.552523 -5.958008 17.885416 -8.193130 34.684964 -5.034939 0.000000 0.000000 0.000000 
-24.579733 80.825455 80.070274 -179.977015 31.241029 179.889001 -2.564357 -2.462335 7.707874 3.567249 4.963552 -27.550755 7.219369 6.688232 30.673666 -0.609614 -8.123587 -6.731115 0.000000 0.000000 0.000000 1.657165 -3.722518 6.209256 3.157597 4.633062 -22.204125 -0.546684 5.349551 29.846106 3.590302 9.493666 -9.992921 0.000000 0.000000 0.000000 2.574758 0.495829 -4.290200 1.045453 -1.047751 -3.433315 -1.558216 -1.442517 8.907329 -0.022761 0.038182 -0.020580 -1.985142 0.036108 9.024996 -3.761277 -1.892973 -6.248461 0.000000 0.000000 0.000000 0.030497 0.568366 6.368440 -5.172958 0.005266 4.247132 -61.920002 5.319898 14.030498 0.807865 -34.922955 18.190493 0.000000 0.000000 0.000000 -4.702870 2.223914 5.806424 28.585462 3.159160 5.842901 51.632894 -6.362629 17.777724 -8.300088 34.466057 -5.159297 0.000000 0.000000 0.000000 
-24.662663 80.818092 80.055527 -179.885886 31.430673 179.988558 -2.565545 -2.415892 7.553606 3.622322 4.809899 -27.491108 7.249002 6.724314 30.812752 -0.437400 -8.023764 -6.813729 0.000000 0.000000 0.000000 1.720818 -3.653119 6.076207 3.139836 4.494115 -22.244485 -0.409664 5.551789 29.918069 3.563805 9.503554 -10.039472 0.000000 0.000000 0.000000 2.662157 0.581653 -4.508540 1.197523 -1.018919 -3.505224 -1.610662 -1.463729 8.952978 0.023914 0.033528 -0.032650 -2.032068 -0.099859 9.155751 -3.776398 -1.739400 -6.131347 0.000000 0.000000 0.000000 -0.008610 0.443496 6.476153 -5.467206 0.056103 4.174330 -61.684866 4.961339 13.583149 0.857362 -35.155397 17.904484 0.000000 0.000000 0.000000 -4.766974 2.147297 5.950446 28.549296 3.305053 5.773491 51.783755 -6.696706 17.491549 -8.257367 34.725372 -5.180938 0.000000 0.000000 0.000000 
-24.719589 80.791847 80.020653 179.922100 31.696593 179.826559 -2.672797 -2.337779 7.372931 3.579612 4.703943 -27.276372 7.301853 6.790383 31.001040 -0.245733 -7.905071 -6.974640 0.000000 0.000000 0.000000 1.572548 -3.655083 5.953702 3.167360 4.239278 -22.205191 -0.197527 6.065047 30.202171 3.451649 9.451436 -10.214522 0.000000 0.000000 0.000000 2.544513 0.660836 -4.732178 1.320135 -0.981656 -3.597299 -1.696570 -1.478117 9.066327 0.022061 0.027889 -0.048018 -2.063833 -0.097515 9.250719 -3.781655 -1.720522 -5.897564 0.000000 0.000000 0.000000 -0.062281 0.512773 6.580433 -5.818207 -0.043159 4.036883 -61.291488 4.107762 13.104696 0.801641 -36.392262 17.609915 0.000000 0.000000 0.000000 -4.807604 2.183596 6.047568 28.570823 3.433887 5.612417 51.890955 -6.991006 17.333427 -8.477182 35.779741 -5.526963 0.000000 0.000000 0.000000 
-24.717035 80.758728 79.940750 179.954065 32.003937 179.905147 -2.713745 -2.246339 7.196369 3.672857 4.499883 -27.189557 7.332620 6.866072 31.290046 -0.087585 -7.796709 -7.197442 0.000000 0.000000 0.000000 1.681026 -3.621093 5.812100 3.017261 4.320333 -22.179817 -0.133418 6.042566 30.483435 3.508933 9.586351 -10.353430 0.000000 0.000000 0.000000 2.557578 0.716231 -5.079822 1.572711 -0.939109 -3.817424 -1.742695 -1.494477 9.148693 -0.027592 0.030405 0.000325 -2.078739 -0.061264 9.406638 -3.657799 -1.751632 -5.553466 0.000000 0.000000 0.000000 -0.092070 0.515044 6.667233 -6.130345 -0.085466 3.871795 -60.730832 2.834126 12.589334 0.420737 -39.073385 17.602842 0.000000 0.000000 0.000000 -4.887992 2.228748 6.108105 28.498961 3.600419 5.372907 51.769368 -7.118396 17.349804 -8.688674 38.060150 -5.880338 0.000000 0.000000 0.000000 
-24.624290 80.735657 79.828903 179.921936 32.275417 179.822803 -2.754257 -2.204352 7.106488 3.789658 4.358594 -26.969087 7.340801 6.909398 31.548934 0.039573 -7.685259 -7.427073 0.000000 0.000000 0.000000 1.681787 -3.719412 5.741406 2.874943 4.647157 -22.064158 0.091361 6.053964 30.770456 3.483909 9.400098 -10.486194 0.000000 0.000000 0.000000 2.531842 0.727447 -5.378023 1.790750 -0.894312 -4.053835 -1.781357 -1.496962 9.318009 -0.018914 0.031657 -0.003175 -2.079572 0.068297 9.528999 -3.437672 -1.615049 -5.113325 0.000000 0.000000 0.000000 -0.122127 0.458570 6.727893 -6.438246 -0.173287 3.694729 -59.975208 1.118629 11.948103 -0.397339 -43.588310 18.046931 0.000000 0.000000 0.000000 -4.950169 2.169937 6.182706 28.326463 3.752481 4.975456 51.255457 -6.814496 17.726089 -8.954134 41.781493 -6.493741 0.000000 0.000000 0.000000 
-24.436491 80.715225 79.669731 179.927755 32.522513 179.841831 -2.727261 -2.222650 6.974941 3.903870 4.300072 -26.737085 7.314481 6.948059 31.860596 0.143372 -7.577842 -7.758905 0.000000 0.000000 0.000000 1.769953 -3.609980 5.662067 2.856766 4.712178 -21.976719 0.211666 6.178829 31.085608 3.289238 9.299529 -10.714860 0.000000 0.000000 0.000000 2.564798 0.715312 -5.689894 2.001544 -0.887385 -4.409588 -1.811060 -1.522264 9.435619 -0.006832 0.015945 -0.029018 -2.065621 -0.010046 9.743453 -3.229348 -1.838874 -4.550000 0.000000 0.000000 0.000000 -0.120805 0.452674 6.846301 -6.741899 -0.311688 3.537080 -59.092351 -1.150828 11.215803 -1.675267 -49.905549 18.954784 0.000000 0.000000 0.000000 -4.973927 2.233756 6.240647 28.247741 4.047672 4.647896 50.450830 -6.127849 18.259290 -9.402455 47.208396 -7.295838 0.000000 0.000000 0.000000 
-24.153952 80.684624 79.512527 179.918466 32.668621 179.823513 -2.676335 -2.035345 6.916258 4.117594 4.070315 -26.515202 7.234778 7.018649 32.087549 0.142405 -7.540070 -8.037956 0.000000 0.000000 0.000000 1.869342 -3.325996 5.629890 2.894940 4.902849 -21.876464 0.231358 6.107076 31.434289 3.021114 9.102112 -10.996739 0.000000 0.000000 0.000000 2.614561 0.795471 -5.940282 2.136730 -0.887821 -4.822409 -1.750654 -1.528178 9.565669 -0.009562 0.039942 -0.023206 -2.008056 -0.053792 9.877114 -2.943948 -1.637714 -3.924870 0.000000 0.000000 0.000000 -0.082542 0.432358 6.925361 -6.943356 -0.469515 3.335074 -58.097931 -4.128809 10.226852 -3.989592 -57.477866 21.056828 0.000000 0.000000 0.000000 -4.954661 2.180413 6.217554 28.109244 4.420357 4.203239 49.460624 -4.723322 18.858840 -9.951767 54.276143 -8.296370 0.000000 0.000000 0.000000 
-23.809704 80.645119 79.393799 179.944708 32.591880 179.842911 -2.542114 -1.901444 6.838127 4.279867 3.760621 -26.331513 7.000235 6.762806 32.276363 0.244546 -7.359589 -8.198870 0.000000 0.000000 0.000000 2.029254 -3.138399 5.650525 2.982884 4.994135 -21.777228 0.308743 6.195260 31.819471 2.463760 8.836488 -11.364280 0.000000 0.000000 0.000000 2.733268 0.859446 -6.118608 2.175250 -0.992765 -5.285395 -1.679326 -1.633144 9.624268 0.035653 -0.009703 -0.011377 -1.900983 -0.082259 9.976240 -2.621442 -1.537933 -3.279977 0.000000 0.000000 0.000000 0.024058 0.313302 6.895377 -7.128855 -0.671572 3.173699 -57.010237 -7.890527 8.837003 -7.705948 -65.640003 24.726806 0.000000 0.000000 0.000000 -4.924002 2.133183 6.153680 28.019765 5.003038 3.719245 48.485317 -2.404676 19.003960 -10.926002 62.790749 -9.880867 0.000000 0.000000 0.000000 
-23.464798 80.591507 79.352585 -179.892061 32.589387 -179.968600 -2.347719 -1.839906 6.753778 4.467108 3.747811 -26.357022 6.943801 6.546143 32.631533 0.183276 -7.368652 -8.382453 0.000000 0.000000 0.000000 2.332377 -2.802424 5.617329 3.129293 5.057809 -21.760563 0.135701 6.026758 32.193823 2.200360 8.702468 -11.669943 0.000000 0.000000 0.000000 2.943075 1.039068 -6.288907 2.185430 -1.004431 -5.791885 -1.512608 -1.668835 9.604712 -0.001375 -0.114480 0.007272 -1.748994 -0.204664 10.029021 -2.303089 -1.368524 -2.656881 0.000000 0.000000 0.000000 0.124491 0.212229 6.949719 -7.098111 -1.046556 2.911855 -55.776049 -12.790607 7.031228 -14.537619 -73.429185 31.685196 0.000000 0.000000 0.000000 -4.835972 2.002211 6.027466 28.117541 5.670195 3.332036 47.542659 1.161775 18.547985 -13.746116 72.164671 -13.439554 0.000000 0.000000 0.000000 
